<?xml version="1.0" encoding="UTF-8" standalone="no"?>

<svg
   width="512"
   height="512"
   viewBox="0 0 135.46667 135.46667"
   version="1.1"
   id="svg1"
   xml:space="preserve"
   xmlns="http://www.w3.org/2000/svg"
   xmlns:svg="http://www.w3.org/2000/svg"><defs
     id="defs1" /><g
     id="layer1"><path
       style="fill:#6e6ade;stroke-width:0.264583"
       id="rect1"
       width="135.46666"
       height="135.46666"
       x="0"
       y="0"
       d="m 33.866665,0 h 67.733325 a 33.866665,33.866665 45 0 1 33.86667,33.866665 v 67.733325 a 33.866665,33.866665 135 0 1 -33.86667,33.86667 H 33.866665 A 33.866665,33.866665 45 0 1 0,101.59999 V 33.866665 A 33.866665,33.866665 135 0 1 33.866665,0 Z" /><path
       id="rect141"
       style="fill:#ffffff;fill-opacity:1;stroke-width:1.19796"
       d="m 38.765798,26.474142 c -2.463804,0.103495 -4.752106,1.851757 -5.252797,4.553194 l -8.652488,46.680891 c -1.567451,8.456964 3.697018,17.741601 11.762051,20.730397 8.872772,3.288136 17.747012,6.572016 26.617272,9.866796 2.480875,0.92154 6.503597,0.92304 8.98475,0.002 8.872118,-3.29196 17.744403,-6.58142 26.617214,-9.871516 8.0645,-2.990283 13.33211,-12.27112 11.76439,-20.728035 l -8.65483,-46.680413 c -0.57231,-3.087248 -3.48011,-4.92849 -6.315061,-4.494699 -1.298154,0.198767 -3.113317,1.448424 -4.218564,2.175992 L 69.732756,42.983608 a 3.6398752,3.6398752 0 0 1 -4.00104,0 L 44.046672,28.708629 c -1.105276,-0.727568 -2.920746,-1.977307 -4.218615,-2.175992 -0.354387,-0.05437 -0.710287,-0.07336 -1.062259,-0.05847 z m 14.586167,29.93974 a 5.6693241,5.6693241 0 0 1 5.330014,5.989844 v 10.660029 a 5.9898257,5.9898257 0 0 1 -5.989841,5.989844 5.6693013,5.6693013 0 0 1 -5.330014,-5.989844 V 62.403726 a 5.9898016,5.9898016 0 0 1 5.989841,-5.989844 z m 29.422665,0 a 5.6693241,5.6693241 0 0 1 5.327634,5.989844 v 10.660029 a 5.9898257,5.9898257 0 0 1 -5.989766,5.989844 5.6693013,5.6693013 0 0 1 -5.327693,-5.989844 V 62.403726 a 5.9898016,5.9898016 0 0 1 5.989825,-5.989844 z" /></g></svg>
