<?xml version="1.0" encoding="UTF-8" standalone="no"?>

<svg
   width="225.70399mm"
   height="50.396999mm"
   viewBox="0 0 225.70399 50.396999"
   version="1.1"
   id="svg1"
   xml:space="preserve"
   xmlns="http://www.w3.org/2000/svg"
   xmlns:svg="http://www.w3.org/2000/svg"><defs
     id="defs1" /><g
     id="g153"
     transform="translate(-56.935219,-74.915243)"><path
       id="rect141"
       style="fill:#6e6ade;stroke-width:0.731553;fill-opacity:1"
       d="m 65.595392,74.918268 c -1.504555,0.0632 -2.901938,1.1308 -3.207692,2.78047 l -5.28376,28.506322 c -0.957185,5.16436 2.257635,10.83415 7.182657,12.6593 5.418279,2.00795 10.837455,4.01329 16.2542,6.0253 1.51498,0.56275 3.97151,0.56366 5.48666,10e-4 5.41788,-2.01029 10.835861,-4.01904 16.254163,-6.02818 4.9247,-1.82606 8.14144,-7.49353 7.18409,-12.65786 l -5.28519,-28.505882 c -0.34949,-1.88527 -2.12518,-3.00965 -3.85638,-2.74475 -0.792737,0.12138 -1.901191,0.8845 -2.576125,1.3288 l -13.242228,8.71721 a 2.2227394,2.2227394 0 0 1 -2.44329,0 L 68.82023,76.282788 c -0.674952,-0.4443 -1.783594,-1.20747 -2.576155,-1.3288 -0.216411,-0.0332 -0.433746,-0.0448 -0.648683,-0.0357 z m 8.907242,18.28311 a 3.46205,3.46205 0 0 1 3.254845,3.65778 v 6.509692 a 3.6577687,3.6577687 0 0 1 -3.657778,3.65778 3.4620361,3.4620361 0 0 1 -3.254845,-3.65778 v -6.509692 a 3.657754,3.657754 0 0 1 3.657778,-3.65778 z m 17.967351,0 a 3.46205,3.46205 0 0 1 3.253392,3.65778 v 6.509692 a 3.6577687,3.6577687 0 0 1 -3.657732,3.65778 3.4620361,3.4620361 0 0 1 -3.253428,-3.65778 v -6.509692 a 3.657754,3.657754 0 0 1 3.657768,-3.65778 z" /><g
       id="g2"
       transform="matrix(0.26458333,0,0,0.26458333,-220.23013,93.974667)"
       style="fill:#6e6ade;fill-opacity:1"><path
         style="fill:#6e6ade;fill-opacity:1"
         d="m 1900.6082,95.430309 h -33.6 v -147.84 h 33.6 z"
         id="path12" /><path
         id="path11"
         style="fill:#6e6ade;fill-opacity:1"
         d="m 1803.6485,-12.089221 c -14.848,0 -27.5196,5.2481402 -38.0156,15.7441402 -10.496,10.4959998 -15.7442,23.1676198 -15.7442,38.0156198 0,15.36 5.1828,28.16039 15.5508,38.40039 10.496,10.24001 23.233,15.35938 38.209,15.35938 6.272,0 12.1601,-0.70333 17.6641,-2.11133 5.632,-1.536 10.1114,-3.13678 13.4394,-4.80078 3.328,-1.792 6.3355,-3.84053 9.0235,-6.14453 2.816,-2.432 4.5436,-4.09619 5.1836,-4.99219 0.768,-0.896 1.3445,-1.59933 1.7285,-2.11133 l -29.5684,-17.47265 -1.3437,1.3457 c -0.896,0.896 -2.8158,1.7915 -5.7598,2.6875 -2.944,0.896 -6.3992,1.34375 -10.3672,1.34375 -8.704,0 -14.5921,-2.68845 -17.664,-8.06445 h 69.6953 c 1.152,-4.352 1.7285,-8.83146 1.7285,-13.43946 0,-14.72 -5.2482,-27.32821 -15.7442,-37.8242098 -10.496,-10.624 -23.1676,-15.9355502 -38.0156,-15.9355502 z m 0,33.59961 c 6.656,0 11.9042,2.2407 15.7442,6.7207 h -31.4883 c 3.84,-4.48 9.0881,-6.7207 15.7441,-6.7207 z" /><path
         id="path9"
         style="fill:#6e6ade;fill-opacity:1"
         d="m 1740.2872,-12.089221 c -7.168,0 -13.8862,1.27984 -20.1582,3.8398402 0,0 -29.1133,8.67969003 -34.1133,43.6796898 l 0.5117,60 h 33.6016 v -53.75977 c 0,-5.632 1.9197,-10.36898 5.7597,-14.20898 3.968,-3.968 8.7665,-5.95117 14.3985,-5.95117 1.536,0 2.689,0.0634 3.457,0.1914 l 16.7031,-29.9511698 c -6.272,-2.5600002 -12.9921,-3.8398402 -20.1601,-3.8398402 z" /><path
         style="fill:#6e6ade;fill-opacity:1"
         d="m 1653.8879,21.510309 v 24.96 q 0,4.992 2.688,7.872 2.88,2.88 5.76,3.072 l 2.88,0.384 q 2.688,0 4.8,-0.576 2.304,-0.768 3.264,-1.344 l 0.768,-0.768 6.72,32.256 q -0.96,0.96 -2.88,2.304 -1.728,1.344 -8.64,3.648 -6.912,2.112 -15.36,2.112 -14.016,0 -23.808,-9.792 -9.792,-9.792 -9.792,-23.808 v -40.32 h -13.44 v -33.6 h 13.44 v -26.88 h 33.6 v 26.88 h 20.16 v 33.6 z"
         id="path8" /><path
         style="fill:#6e6ade;fill-opacity:1"
         d="m 1543.2958,21.510309 q 0,2.496 6.144,3.456 6.336,0.768 15.168,1.92 9.024,0.96 17.856,3.648 9.024,2.688 15.168,10.752 6.336,7.872 6.336,20.544 0,14.976 -13.44,24.384 -13.248,9.216 -33.792,9.216 -11.904,0 -23.808,-2.304 -11.712,-2.304 -17.472,-4.608 l -5.76,-2.496 13.44,-30.912 q 1.536,1.152 4.224,3.072 2.88,1.728 11.52,4.8 8.832,2.88 17.856,2.88 13.248,0 12.672,-5.376 -0.384,-1.344 -0.384,-1.344 -0.192,-0.768 -4.8,-1.344 -4.608,-0.576 -11.136,-0.96 -6.528,-0.384 -14.208,-2.496 -7.68,-2.112 -14.208,-5.376 -6.336,-3.456 -10.752,-10.56 -4.224,-7.104 -4.224,-16.896 0,-14.9759998 13.248,-24.1919998 13.44,-9.4080002 33.792,-9.4080002 12.096,0 22.08,2.1120002 10.176,1.92 14.208,4.032 l 4.224,1.92 -14.784,26.8799998 q -9.408,-6.72 -25.728,-6.72 -13.44,0 -13.44,5.376 z"
         id="path7" /><path
         id="path6"
         style="fill:#6e6ade;fill-opacity:1"
         d="m 1453.0548,-12.089221 c -14.848,0 -27.5197,5.2481402 -38.0157,15.7441402 -10.496,10.4959998 -15.7441,23.1676198 -15.7441,38.0156198 0,15.36 5.1847,28.16039 15.5527,38.40039 10.496,10.24001 23.2311,15.35938 38.2071,15.35938 6.272,0 12.16,-0.70333 17.664,-2.11133 5.632,-1.536 10.1134,-3.13678 13.4414,-4.80078 3.328,-1.792 6.3355,-3.84053 9.0235,-6.14453 2.816,-2.432 4.5436,-4.09619 5.1836,-4.99219 0.768,-0.896 1.3445,-1.59933 1.7285,-2.11133 l -29.5684,-17.47265 -1.3437,1.3457 c -0.896,0.896 -2.8158,1.7915 -5.7598,2.6875 -2.944,0.896 -6.4011,1.34375 -10.3691,1.34375 -8.704,0 -14.5921,-2.68845 -17.6641,-8.06445 h 69.6973 c 1.152,-4.352 1.7285,-8.83146 1.7285,-13.43946 0,-14.72 -5.2482,-27.32821 -15.7442,-37.8242098 -10.496,-10.624 -23.1695,-15.9355502 -38.0175,-15.9355502 z m 0,33.59961 c 6.656,0 11.9041,2.2407 15.7441,6.7207 h -31.4863 c 3.84,-4.48 9.0862,-6.7207 15.7422,-6.7207 z" /><path
         style="fill:#6e6ade;fill-opacity:1"
         d="m 1365.6957,-38.969691 h 45.12 l -56.064,62.4 56.064,72 h -42.624 l -36.096,-46.464 -8.64,9.408 v 37.056 h -33.6 v -134.4 h 33.6 V 8.0703092 Z"
         id="text3" /></g></g></svg>
